<?xml version="1.0" encoding="UTF-8"?>
<svg version="1.1" xmlns="http://www.w3.org/2000/svg" width="500" height="500">
<path d="M0 0 C1.87353149 -0.01279495 1.87353149 -0.01279495 3.78491211 -0.02584839 C5.16139234 -0.02514942 6.53787247 -0.0242264 7.91435242 -0.02310181 C9.37007491 -0.02908898 10.82579423 -0.03589496 12.2815094 -0.04345703 C16.22998868 -0.06110614 20.17838123 -0.06581198 24.12689614 -0.0670886 C26.59592032 -0.0685115 29.06492255 -0.07278374 31.53394127 -0.07808304 C40.15376049 -0.09658045 48.77351791 -0.10475411 57.39335632 -0.10317993 C65.41807586 -0.10197894 73.44252625 -0.12307351 81.46717769 -0.15466726 C88.36502382 -0.18085325 95.26278218 -0.19154624 102.16067761 -0.19026911 C106.27679388 -0.18976011 110.39267096 -0.19540855 114.50873756 -0.21662521 C118.38221975 -0.23604667 122.25523556 -0.23610576 126.12873459 -0.22159195 C127.54604845 -0.21950749 128.9633918 -0.22418312 130.38065529 -0.23631287 C139.4658709 -0.30899988 145.93434473 0.08340089 153.03813171 6.19711304 C153.57695984 6.83906616 154.11578796 7.48101929 154.67094421 8.14242554 C155.22524109 8.77922241 155.77953796 9.41601929 156.35063171 10.07211304 C159.34658603 14.62272472 160.04668219 19.13719217 160.07009888 24.50234985 C160.08007401 25.73302689 160.09004913 26.96370392 160.10032654 28.23167419 C160.10122219 29.58245837 160.10188584 30.93324271 160.1023407 32.2840271 C160.10996839 33.71694874 160.11839693 35.14986631 160.12756348 36.58277893 C160.14945688 40.46521065 160.15830055 44.34756362 160.16338992 48.23005009 C160.16703998 50.65939573 160.17328345 53.08872095 160.18039131 55.51805878 C160.2048691 64.00402222 160.21793383 72.4899247 160.22148132 80.97592163 C160.22511402 88.86832663 160.25499439 96.76034215 160.29688591 104.65262818 C160.3316548 111.44267162 160.34703091 118.2325864 160.34772736 125.02271819 C160.34851801 129.07188058 160.35715825 133.120646 160.38572502 137.16971588 C160.41201907 140.98173389 160.41404869 144.79302903 160.39806938 148.60509682 C160.39626375 149.99739225 160.40286502 151.38973034 160.41888809 152.78193474 C160.51903276 162.05495057 159.54603255 169.55589993 153.4594183 176.87446976 C145.85453488 184.03269163 135.55247745 183.70154227 125.79008484 183.65560913 C124.39450674 183.65968151 122.99893188 183.66502711 121.60336304 183.67153931 C117.83680146 183.68513966 114.07048821 183.67994464 110.30392265 183.67040205 C106.34833519 183.66276747 102.39276793 183.66986156 98.43717957 183.67456055 C91.79647534 183.68000709 85.15587146 183.67285549 78.5151825 183.65853882 C70.8551099 183.64221439 63.19527692 183.64750368 55.53521013 183.66401803 C48.93959275 183.67766439 42.34404719 183.67953722 35.74842024 183.67170203 C31.81738836 183.66704277 27.88646884 183.66635224 23.95544434 183.67631149 C20.25840947 183.68502493 16.56168132 183.67888018 12.86467934 183.66162872 C10.87336261 183.65581794 8.88201972 183.66464193 6.89071655 183.67401123 C-1.27764625 183.61655186 -8.80568165 183.08148382 -15.51655579 178.01742554 C-21.26044226 172.13996031 -23.31850544 166.4302787 -23.35122681 158.304245 C-23.35838211 157.08328629 -23.36553741 155.86232758 -23.37290955 154.60437012 C-23.37574961 153.25418116 -23.37846136 151.90399193 -23.38105774 150.55380249 C-23.3873255 149.12940811 -23.39397258 147.70501537 -23.40097046 146.28062439 C-23.42197795 141.60566336 -23.43237046 136.93070214 -23.44233704 132.25570679 C-23.44638598 130.64373444 -23.45050294 129.03176227 -23.45468712 127.41979027 C-23.47373234 119.84483891 -23.48796419 112.26989725 -23.49629909 104.69492656 C-23.5060662 95.96347395 -23.53237464 87.2322752 -23.57279998 78.50091201 C-23.60300527 71.74405657 -23.61777218 64.98727372 -23.6210801 58.2303521 C-23.62342575 54.19856662 -23.6323225 50.16705254 -23.65754128 46.13533974 C-23.6809043 42.33903874 -23.68502255 38.54318628 -23.67477989 34.74683189 C-23.67428639 33.35895669 -23.6805517 31.97105879 -23.69433594 30.58325195 C-23.77920419 21.52676645 -23.22933012 14.06094308 -17.23921204 6.92758179 C-16.26274719 6.13674194 -16.26274719 6.13674194 -15.26655579 5.32992554 C-14.61815735 4.7846521 -13.96975891 4.23937866 -13.30171204 3.67758179 C-8.94240828 0.74702563 -5.21357683 0.0161235 0 0 Z " fill="#00BF63" transform="translate(88.20405578613281,64.73257446289063)"/>
<path d="M0 0 C1.43631386 -0.00406957 2.8726246 -0.00941361 4.30892944 -0.01593018 C8.19537038 -0.02956507 12.08157144 -0.02432073 15.96801639 -0.01479292 C20.04420011 -0.00717495 24.12036389 -0.01424799 28.19654846 -0.01895142 C35.04171417 -0.02440338 41.88678266 -0.01723272 48.73193359 -0.00292969 C56.63282967 0.01338926 64.53349338 0.00811162 72.43438381 -0.0084089 C79.23036761 -0.02204754 86.02628168 -0.02393164 92.82227474 -0.0160929 C96.87570536 -0.01142858 100.92902698 -0.01075707 104.98245049 -0.02070236 C108.79518186 -0.02940423 112.6076154 -0.02329181 116.42031479 -0.00601959 C117.81504257 -0.00207158 119.20979565 -0.00315976 120.60451317 -0.00980759 C136.71442473 -0.07948166 136.71442473 -0.07948166 143.58813477 5.70068359 C148.89774485 12.04271786 150.9493371 16.20399308 150.99203491 24.38259888 C151.00063538 25.61052658 151.00923584 26.83845428 151.01809692 28.10359192 C151.0225318 29.46163898 151.02683019 30.81968649 151.03100586 32.17773438 C151.03891111 33.61035865 151.04718032 35.04298096 151.05578613 36.4756012 C151.08196144 41.17821361 151.09731115 45.88083471 151.11157227 50.58349609 C151.11693415 52.20535156 151.12231166 53.82720698 151.12770462 55.44906235 C151.14932842 62.19864952 151.16806272 68.94823434 151.17932701 75.69784737 C151.1955511 85.35431302 151.22869687 95.01037538 151.28572786 104.66668904 C151.32450382 111.46517118 151.34396884 118.2635458 151.34924757 125.06213558 C151.35289112 129.11805513 151.36480502 133.17354411 151.39735031 137.22934341 C151.42756574 141.04951627 151.43369551 144.86900105 151.42196655 148.68926811 C151.42174692 150.08479702 151.42995979 151.48035912 151.44762039 152.87577629 C151.54937259 161.38455193 150.93921778 168.32941559 145.83813477 175.38818359 C139.92473646 181.05582825 133.94430109 183.62924514 125.67913818 183.65560913 C124.46528946 183.6641391 123.25144073 183.67266907 122.00080872 183.68145752 C120.68223373 183.68055115 119.36365875 183.67964478 118.00512695 183.67871094 C116.59191026 183.68470032 115.17869684 183.69150681 113.76548767 183.69906616 C109.93676364 183.71669397 106.10812909 183.72142024 102.2793684 183.72269773 C99.88352473 183.72412198 97.4877036 183.72839679 95.09186554 183.73369217 C86.72260603 183.7521834 78.35341012 183.76036412 69.98413086 183.75878906 C62.2008425 183.75758864 54.41783187 183.77867374 46.63461375 183.81027639 C39.93798806 183.83649144 33.24145277 183.84715414 26.5447762 183.84587824 C22.55156891 183.84537005 18.55860845 183.85097371 14.56545258 183.87223434 C10.80603447 183.89170469 7.04709638 183.89168189 3.2876606 183.87720108 C1.26427489 183.87413782 -0.75911131 183.89072857 -2.78242493 183.90808105 C-10.4046104 183.85588868 -16.33930272 182.86605359 -23.16186523 179.38818359 C-23.16186523 178.72818359 -23.16186523 178.06818359 -23.16186523 177.38818359 C-24.15186523 177.05818359 -25.14186523 176.72818359 -26.16186523 176.38818359 C-26.16186523 175.72818359 -26.16186523 175.06818359 -26.16186523 174.38818359 C-26.82186523 174.38818359 -27.48186523 174.38818359 -28.16186523 174.38818359 C-32.30706694 166.25343794 -32.73498719 159.01492892 -32.67944336 149.9934082 C-32.68487453 148.56812326 -32.69200273 147.14284393 -32.70068359 145.71757507 C-32.7188004 141.8745682 -32.71189862 138.03199452 -32.69916725 134.18898082 C-32.68898069 130.15198213 -32.69844835 126.11501846 -32.70471191 122.07801819 C-32.71197113 115.30202634 -32.70244529 108.52620939 -32.68334961 101.75024414 C-32.6615753 93.93387978 -32.66864308 86.11793275 -32.69065523 78.30157846 C-32.70884815 71.57004554 -32.71134887 64.83863773 -32.70090055 58.10708815 C-32.69468806 54.09555798 -32.69376791 50.08422355 -32.70704651 46.07270622 C-32.7186617 42.30088341 -32.71047714 38.52959516 -32.68746948 34.75782967 C-32.67971953 32.72597092 -32.69148908 30.69406658 -32.70397949 28.66223145 C-32.63080849 20.7064202 -32.05463535 13.62935907 -26.47052765 7.54547024 C-18.52607099 0.03654656 -10.45593569 -0.04975842 0 0 Z " fill="#00BF63" transform="translate(97.161865234375,251.61181640625)"/>
<path d="M0 0 C1.43631386 -0.00406957 2.8726246 -0.00941361 4.30892944 -0.01593018 C8.19537038 -0.02956507 12.08157144 -0.02432073 15.96801639 -0.01479292 C20.04420011 -0.00717495 24.12036389 -0.01424799 28.19654846 -0.01895142 C35.04171417 -0.02440338 41.88678266 -0.01723272 48.73193359 -0.00292969 C56.63282967 0.01338926 64.53349338 0.00811162 72.43438381 -0.0084089 C79.23036761 -0.02204754 86.02628168 -0.02393164 92.82227474 -0.0160929 C96.87570536 -0.01142858 100.92902698 -0.01075707 104.98245049 -0.02070236 C108.79518186 -0.02940423 112.6076154 -0.02329181 116.42031479 -0.00601959 C117.81504257 -0.00207158 119.20979565 -0.00315976 120.60451317 -0.00980759 C136.74690329 -0.07962213 136.74690329 -0.07962213 143.29907227 5.47412109 C143.93071289 6.22951172 144.56235352 6.98490234 145.21313477 7.76318359 C145.86024414 8.51341797 146.50735352 9.26365234 147.17407227 10.03662109 C150.31312368 14.4725576 151.08887804 18.19798237 151.1055603 23.59223938 C151.11835526 25.46577087 151.11835526 25.46577087 151.13140869 27.37715149 C151.13070973 28.75363172 151.1297867 30.13011185 151.12866211 31.5065918 C151.13464928 32.96231429 151.14145526 34.41803361 151.14901733 35.87374878 C151.16666645 39.82222806 151.17137228 43.77062061 151.17264891 47.71913552 C151.1740718 50.1881597 151.17834404 52.65716193 151.18364334 55.12618065 C151.20214075 63.74599987 151.21031441 72.36575729 151.20874023 80.9855957 C151.20753925 89.01031524 151.22863381 97.03476563 151.26022756 105.05941707 C151.28641355 111.9572632 151.29710654 118.85502156 151.29582942 125.75291699 C151.29532042 129.86903326 151.30096885 133.98491034 151.32218552 138.10097694 C151.34160697 141.97445913 151.34166606 145.84747494 151.32715225 149.72097397 C151.32506779 151.13828783 151.32974342 152.55563118 151.34187317 153.97289467 C151.41319363 162.88730457 151.03913116 169.29697605 145.19750977 176.37646484 C144.66641602 176.81345703 144.13532227 177.25044922 143.58813477 177.70068359 C142.80696289 178.37550781 142.80696289 178.37550781 142.01000977 179.06396484 C134.13108018 183.86784458 126.77770786 183.82314721 117.76220703 183.79223633 C116.34707096 183.7979468 114.93193948 183.80491367 113.51681519 183.81303406 C109.69235943 183.83090581 105.86813386 183.82980848 102.04364896 183.82409167 C98.84297645 183.82099118 95.6423476 183.82710179 92.44168133 183.83313042 C84.88719037 183.84715432 77.33281254 183.84563213 69.77832031 183.83422852 C62.00177264 183.82274864 54.22556989 183.83682548 46.44906765 183.86362499 C39.75580285 183.88582219 33.06264601 183.89241036 26.36934704 183.88654858 C22.37901127 183.88318747 18.38889658 183.88553744 14.398592 183.90279961 C10.64487389 183.91833114 6.89166461 183.91424526 3.13796616 183.89549446 C1.11561528 183.89008557 -0.90675878 183.9042752 -2.92906189 183.91918945 C-11.6668011 183.84880635 -18.19830213 182.73519243 -24.97436523 177.01318359 C-30.68480841 170.16065178 -32.28109177 165.21798349 -32.295578 156.36758423 C-32.29984299 155.1845018 -32.30410797 154.00141937 -32.3085022 152.78248596 C-32.30804901 151.49817184 -32.30759583 150.21385773 -32.30712891 148.890625 C-32.31012369 147.51357431 -32.31352695 146.13652446 -32.31730652 144.75947571 C-32.32611783 141.03006944 -32.32848341 137.30068614 -32.3291223 133.57127047 C-32.32983439 131.23843302 -32.33197169 128.90560136 -32.33461952 126.57276535 C-32.34386314 118.42627341 -32.3479556 110.2797978 -32.34716797 102.13330078 C-32.3465673 94.55228014 -32.35711959 86.97133068 -32.37291163 79.39032805 C-32.38600702 72.87038738 -32.39135103 66.35046993 -32.39071256 59.83051622 C-32.39045818 55.94140452 -32.39327624 52.05235614 -32.40389061 48.1632576 C-32.41360542 44.50409485 -32.41362771 40.84505551 -32.40637398 37.18588829 C-32.40483785 35.2122322 -32.41315102 33.23857603 -32.42181396 31.26493835 C-32.38980221 22.19277598 -32.02449805 14.75835056 -26.16186523 7.38818359 C-18.23688239 -0.1084218 -10.38871341 -0.04943852 0 0 Z " fill="#00BF63" transform="translate(284.161865234375,251.61181640625)"/>
<path d="M0 0 C1.68657946 0.59446431 3.37376907 1.18719997 5.06152344 1.77832031 C8.5922429 3.01622765 12.12039826 4.26107771 15.64697266 5.51074219 C23.14347841 8.16052147 30.67091123 10.71884863 38.19869995 13.27807617 C40.69970868 14.12915454 43.19973218 14.9830664 45.69946289 15.83789062 C54.42144197 18.81972648 63.14815147 21.78705119 71.88165283 24.73498535 C76.4484969 26.27665007 81.01434086 27.82126644 85.5802002 29.36584473 C87.79801154 30.11506064 90.01634592 30.86273024 92.23522949 31.60876465 C95.34562877 32.65461324 98.45420902 33.7057174 101.5625 34.7578125 C102.47952698 35.06455902 103.39655396 35.37130554 104.34136963 35.68734741 C115.57852258 39.50459591 124.1741574 42.52413156 130.01953125 53.3515625 C132.34910014 61.02427025 130.8297599 68.14765997 128.0859375 75.46875 C127.78942291 76.2997522 127.49290833 77.13075439 127.18740845 77.98693848 C126.24383229 80.62188159 125.27904379 83.24840635 124.3125 85.875 C123.3764574 88.4630825 122.44491115 91.05275598 121.51339722 93.64247131 C120.89335325 95.36481681 120.27153693 97.08652525 119.64797974 98.80760193 C117.12213339 105.79465912 114.75285526 112.82623935 112.42529297 119.88134766 C110.88311753 124.55465692 109.30129782 129.21399193 107.7109375 133.87109375 C107.30019989 135.07431023 107.30019989 135.07431023 106.88116455 136.30183411 C105.41868797 140.58262826 103.95300736 144.86232255 102.48681641 149.1418457 C101.86616075 150.95392161 101.24555552 152.76601479 100.625 154.578125 C100.31750824 155.475811 100.01001648 156.37349701 99.69320679 157.29838562 C97.89130821 162.56544868 96.1054533 167.83756566 94.33627319 173.1157074 C93.25556578 176.33824888 92.16853711 179.55864048 91.08087158 182.77883911 C90.57344311 184.28695652 90.06910787 185.79611864 89.5680542 187.30636597 C88.87366054 189.39842989 88.16848774 191.48657435 87.4609375 193.57421875 C87.06825684 194.74815186 86.67557617 195.92208496 86.27099609 197.1315918 C83.52883768 203.80123195 79.54842221 209.02727993 73.01953125 212.3515625 C65.44307399 215.48765893 59.12651952 214.45670566 51.62109375 211.76953125 C50.42674461 211.35673164 50.42674461 211.35673164 49.20826721 210.93559265 C46.5936222 210.02944325 43.98447023 209.10843373 41.375 208.1875 C39.53098609 207.54576151 37.68657838 206.90515356 35.84179688 206.265625 C32.04894112 204.94958034 28.25793427 203.62840474 24.46826172 202.30322266 C17.07287869 199.72035371 9.65956057 197.19055325 2.24530029 194.6625061 C-0.85175181 193.60567833 -3.94754142 192.54517761 -7.043396 191.48484802 C-13.73747913 189.19241867 -20.43391354 186.90705458 -27.1335144 184.63079834 C-30.78819865 183.38900698 -34.44231399 182.14554563 -38.09643555 180.90209961 C-39.82497781 180.3144684 -41.55380509 179.72767471 -43.28295898 179.1418457 C-48.07469874 177.51833954 -52.86057876 175.87938432 -57.63861084 174.21594238 C-59.31284271 173.63508557 -60.98878309 173.05913827 -62.66607666 172.48718262 C-65.26832232 171.59700222 -67.86306634 170.68742855 -70.45703125 169.7734375 C-71.64180305 169.37386337 -71.64180305 169.37386337 -72.85050964 168.96621704 C-80.60418071 166.18909234 -84.35442533 161.52628686 -88.0625 154.375 C-90.73885607 146.3459318 -88.1373263 139.58150272 -85.4375 131.9375 C-85.04216064 130.78644775 -84.64682129 129.63539551 -84.23950195 128.44946289 C-83.34975972 125.86070862 -82.4557055 123.27380406 -81.55615234 120.68847656 C-79.93735415 116.02673649 -78.352675 111.35363365 -76.76953125 106.6796875 C-70.98319309 89.61557297 -65.11602908 72.58343441 -59.07235718 55.6086731 C-56.38430013 48.05610821 -53.74447456 40.49271044 -51.234375 32.87890625 C-51.00691589 32.18970596 -50.77945679 31.50050568 -50.54510498 30.79042053 C-49.47269764 27.53440097 -48.40972857 24.27585721 -47.35839844 21.01293945 C-43.66800847 9.71329425 -40.19435882 1.29691455 -29.6875 -5.0625 C-19.02702136 -7.34688828 -9.89798989 -3.56779293 0 0 Z " fill="#00BF62" transform="translate(347.0625,27.625)"/>
</svg>
